<svg width="24" height="24" viewBox="0 0 24 24" fill="none" xmlns="http://www.w3.org/2000/svg">
<g filter="url(#filter0_d_772_698)">
<path fill-rule="evenodd" clip-rule="evenodd" d="M14.2038 0.5C13.7859 0.5 13.4472 0.843603 13.4472 1.26746C13.4472 1.69132 13.7859 2.03492 14.2038 2.03492H16.9169L11.3989 7.63192C11.1034 7.93163 11.1034 8.41756 11.3989 8.71727C11.6944 9.01698 12.1735 9.01698 12.4689 8.71727L17.9869 3.12027V5.87221C17.9869 6.29607 18.3256 6.63967 18.7435 6.63967C19.1614 6.63967 19.5001 6.29607 19.5001 5.87221V1.65119C19.5001 1.34583 19.3805 1.05304 19.1677 0.837181C18.9549 0.62132 18.6662 0.5 18.3652 0.5H14.2038ZM11.688 2.45319C10.5657 2.45319 9.46854 2.79077 8.53535 3.42324C7.60216 4.05571 6.87483 4.95467 6.44532 6.00644C6.01582 7.0582 5.90344 8.21552 6.1224 9.33207C6.34136 10.4486 6.88182 11.4742 7.67544 12.2792C8.46905 13.0842 9.48018 13.6324 10.581 13.8545C11.6817 14.0766 12.8227 13.9626 13.8596 13.5269C14.8965 13.0913 15.7828 12.3535 16.4063 11.4069C17.0299 10.4604 17.3627 9.34755 17.3627 8.20914C17.3627 7.78528 17.7014 7.44168 18.1193 7.44168C18.5372 7.44168 18.8759 7.78528 18.8759 8.20914C18.8759 9.65114 18.4543 11.0607 17.6645 12.2597C16.8747 13.4587 15.7521 14.3932 14.4387 14.945C13.1253 15.4968 11.6801 15.6412 10.2857 15.3599C8.89142 15.0786 7.61066 14.3842 6.60542 13.3646C5.60017 12.3449 4.91558 11.0458 4.63824 9.63151C4.36089 8.21722 4.50324 6.75128 5.04727 5.41905C5.59131 4.08682 6.5126 2.94813 7.69464 2.147C8.87669 1.34586 10.2664 0.918276 11.688 0.918276C12.1059 0.918276 12.4446 1.26188 12.4446 1.68573C12.4446 2.10959 12.1059 2.45319 11.688 2.45319Z" fill="white" fill-opacity="0.4" shape-rendering="crispEdges"/>
</g>
<defs>
<filter id="filter0_d_772_698" x="0.500122" y="0.5" width="23" height="23" filterUnits="userSpaceOnUse" color-interpolation-filters="sRGB">
<feFlood flood-opacity="0" result="BackgroundImageFix"/>
<feColorMatrix in="SourceAlpha" type="matrix" values="0 0 0 0 0 0 0 0 0 0 0 0 0 0 0 0 0 0 127 0" result="hardAlpha"/>
<feOffset dy="4"/>
<feGaussianBlur stdDeviation="2"/>
<feComposite in2="hardAlpha" operator="out"/>
<feColorMatrix type="matrix" values="0 0 0 0 0 0 0 0 0 0 0 0 0 0 0 0 0 0 0.25 0"/>
<feBlend mode="normal" in2="BackgroundImageFix" result="effect1_dropShadow_772_698"/>
<feBlend mode="normal" in="SourceGraphic" in2="effect1_dropShadow_772_698" result="shape"/>
</filter>
</defs>
</svg>
