<svg width="113" height="19" viewBox="0 0 113 19" fill="none" xmlns="http://www.w3.org/2000/svg">
<path d="M13.856 1.2V11.208L6.224 1.2H0.2V18H5.888V8.016L13.52 18H19.544V1.2H13.856ZM39.014 5.088V1.2H22.43V18H28.142V11.784H38.342V7.896H28.142V5.088H39.014ZM59.3536 1.2H40.9456V5.088H47.3056V18H52.9936V5.088H59.3536V1.2ZM67.4913 4.872C63.5313 4.872 59.1153 6.672 59.1153 11.616C59.1153 16.56 63.5313 18.36 67.4913 18.36C71.4273 18.36 75.8433 16.56 75.8433 11.616C75.8433 6.672 71.4273 4.872 67.4913 4.872ZM67.4913 14.952C65.0433 14.952 64.1313 13.344 64.1313 11.616C64.1313 9.888 65.0433 8.28 67.4913 8.28C69.9153 8.28 70.8273 9.888 70.8273 11.616C70.8273 13.344 69.9153 14.952 67.4913 14.952ZM88.1739 8.16V5.208H84.4299V1.896H79.1979V5.208H76.8219V8.16H79.1979V12.888C79.1979 16.704 80.3499 18.216 85.1739 18.216C86.1579 18.216 87.2859 18.144 88.1739 18.024V14.472C85.6059 14.688 84.4299 14.688 84.4299 12.888V8.16H88.1739ZM97.43 4.872C93.278 4.872 90.71 5.976 90.254 9.096H95.03C95.198 8.304 95.582 7.824 97.43 7.824C99.662 7.824 99.878 8.592 99.878 9.816V9.984C91.166 9.504 89.63 11.664 89.63 14.544C89.63 17.064 91.67 18.36 95.294 18.36C97.478 18.36 99.11 17.472 99.878 16.632V18H105.11V9.816C105.11 5.52 101.558 4.872 97.43 4.872ZM99.878 14.352C99.182 15.168 97.958 15.72 96.614 15.72C95.438 15.72 94.718 15.384 94.718 14.424C94.718 12.888 96.686 12.744 99.878 12.888V14.352ZM107.512 0.287999V18H112.744V0.287999H107.512Z" fill="white"/>
</svg>
